<?xml version="1.0" encoding="UTF-8" standalone="no"?>
<!-- Created with Inkscape (http://www.inkscape.org/) -->

<svg
   xmlns:dc="http://purl.org/dc/elements/1.1/"
   xmlns:cc="http://creativecommons.org/ns#"
   xmlns:rdf="http://www.w3.org/1999/02/22-rdf-syntax-ns#"
   xmlns:svg="http://www.w3.org/2000/svg"
   xmlns="http://www.w3.org/2000/svg"
   xmlns:sodipodi="http://sodipodi.sourceforge.net/DTD/sodipodi-0.dtd"
   xmlns:inkscape="http://www.inkscape.org/namespaces/inkscape"
   width="744.09448819"
   height="1052.3622047"
   id="svg2"
   version="1.1"
   inkscape:version="0.48.3.1 r9886"
   sodipodi:docname="Monster-Vectors.svg">
  <defs
     id="defs4" />
  <sodipodi:namedview
     id="base"
     pagecolor="#ffffff"
     bordercolor="#666666"
     borderopacity="1.0"
     inkscape:pageopacity="0.0"
     inkscape:pageshadow="2"
     inkscape:zoom="0.29352679"
     inkscape:cx="960.30701"
     inkscape:cy="452.68182"
     inkscape:document-units="px"
     inkscape:current-layer="layer2"
     showgrid="false"
     inkscape:window-width="1366"
     inkscape:window-height="705"
     inkscape:window-x="-8"
     inkscape:window-y="-8"
     inkscape:window-maximized="1">
    <inkscape:grid
       type="xygrid"
       id="grid2986" />
  </sodipodi:namedview>
  <metadata
     id="metadata7">
    <rdf:RDF>
      <cc:Work
         rdf:about="">
        <dc:format>image/svg+xml</dc:format>
        <dc:type
           rdf:resource="http://purl.org/dc/dcmitype/StillImage" />
        <dc:title></dc:title>
      </cc:Work>
    </rdf:RDF>
  </metadata>
  <g
     inkscape:label="Layer 1"
     inkscape:groupmode="layer"
     id="layer1"
     style="display:inline"
     sodipodi:insensitive="true">
    <rect
       style="fill:#808080;fill-opacity:1;fill-rule:evenodd;stroke:#a18824;stroke-width:0.32798156;stroke-linecap:butt;stroke-linejoin:miter;stroke-miterlimit:4;stroke-opacity:1;stroke-dasharray:none"
       id="rect2990"
       width="2314.4771"
       height="1280"
       x="-514.47711"
       y="-187.63782" />
    <path
       style="fill:#000000;stroke:#000000;stroke-width:0.44444445px;stroke-linecap:butt;stroke-linejoin:miter;stroke-opacity:1"
       d="m 622.22221,634.58441 177.77779,0 0,17.77777 17.7778,0 0,124.44445 -53.3334,17.77778 0,53.33333 -106.6666,0 0,-53.33333 -53.33337,-17.77778 0,-17.77778 0,-88.88889 0,-17.77778 17.77778,0 z"
       id="path2987"
       inkscape:connector-curvature="0"
       sodipodi:nodetypes="ccccccccccccccc" />
    <rect
       style="fill:#ffffff;fill-opacity:1;fill-rule:evenodd;stroke:none"
       id="rect2989"
       width="142.22223"
       height="17.777779"
       x="640"
       y="687.91772" />
    <rect
       style="fill:#ffffff;fill-opacity:1;fill-rule:evenodd;stroke:none"
       id="rect5201"
       width="17.777779"
       height="53.333336"
       x="657.77777"
       y="705.6955" />
    <rect
       style="fill:#ffffff;fill-opacity:1;fill-rule:evenodd;stroke:none"
       id="rect5203"
       width="17.777779"
       height="53.333336"
       x="746.66663"
       y="705.6955" />
    <rect
       style="fill:#ffffff;fill-opacity:1;fill-rule:evenodd;stroke:none"
       id="rect5205"
       width="35.555557"
       height="17.777779"
       x="693.33325"
       y="723.47327" />
    <rect
       style="fill:#ffffff;fill-opacity:1;fill-rule:evenodd;stroke:none"
       id="rect5207"
       width="35.555557"
       height="17.777779"
       x="693.33325"
       y="812.36218" />
    <rect
       style="fill:#ffffff;fill-opacity:1;fill-rule:evenodd;stroke:none"
       id="rect5209"
       width="17.777779"
       height="17.777779"
       x="728.88892"
       y="794.58441" />
    <rect
       style="fill:#ffffff;fill-opacity:1;fill-rule:evenodd;stroke:none"
       id="rect5211"
       width="17.777779"
       height="17.777779"
       x="675.55554"
       y="794.58441" />
    <rect
       style="fill:#ffffff;fill-opacity:1;fill-rule:evenodd;stroke:none"
       id="rect5213"
       width="71.111115"
       height="17.777779"
       x="675.55554"
       y="759.02881" />
    <path
       style="fill:#000000;stroke:#000000;stroke-width:0.44444445px;stroke-linecap:butt;stroke-linejoin:miter;stroke-opacity:1"
       d="m 639.99999,599.02885 0,17.77778 142.22221,0 0,-17.77778 17.7778,0 0,-17.77778 17.7778,0 0,-17.77778 -35.5556,0 0,17.77778 -17.7778,0 0,17.77778 -106.6666,0 0,-17.77778 -17.77781,0 0,-17.77778 -35.55556,0 0,17.77778 17.77778,0 0,17.77778"
       id="path5217"
       inkscape:connector-curvature="0"
       sodipodi:nodetypes="cccccccccccccccccccc" />
    <path
       style="fill:#000000;stroke:#000000;stroke-width:0.44444445px;stroke-linecap:butt;stroke-linejoin:miter;stroke-opacity:1"
       d="m 622.22221,545.69552 35.55559,0 106.6666,0 35.5556,0 0,17.77777 -35.5556,0 0,-35.55555 -106.6666,0 2.5397,35.55555 -38.09529,0 z"
       id="path5219"
       inkscape:connector-curvature="0"
       sodipodi:nodetypes="ccccccccccc" />
  </g>
  <g
     inkscape:groupmode="layer"
     id="layer2"
     inkscape:label="Layer">
    <rect
       style="fill:#ffffff;fill-opacity:1;fill-rule:evenodd;stroke:#a18824;stroke-width:0.23094012;stroke-linecap:butt;stroke-linejoin:miter;stroke-miterlimit:4;stroke-opacity:1;stroke-dasharray:none"
       id="rect3024"
       width="20"
       height="40"
       x="330"
       y="192.36218" />
    <rect
       style="fill:#ffffff;fill-opacity:1;fill-rule:evenodd;stroke:#a18824;stroke-width:0.2;stroke-linecap:butt;stroke-linejoin:miter;stroke-miterlimit:4;stroke-opacity:1;stroke-dasharray:none"
       id="rect3026"
       width="20"
       height="40"
       x="490"
       y="192.36218" />
    <rect
       style="fill:#ffffff;fill-opacity:1;fill-rule:evenodd;stroke:#a18824;stroke-width:0.2;stroke-linecap:butt;stroke-linejoin:miter;stroke-miterlimit:4;stroke-opacity:1;stroke-dasharray:none"
       id="rect3028"
       width="20"
       height="20"
       x="350"
       y="232.36218" />
    <rect
       style="fill:#ffffff;fill-opacity:1;fill-rule:evenodd;stroke:#a18824;stroke-width:0.2;stroke-linecap:butt;stroke-linejoin:miter;stroke-miterlimit:4;stroke-opacity:1;stroke-dasharray:none"
       id="rect3030"
       width="20"
       height="20"
       x="470"
       y="232.36218" />
    <rect
       style="fill:#ffffff;fill-opacity:1;fill-rule:evenodd;stroke:#a18824;stroke-width:0.2;stroke-linecap:butt;stroke-linejoin:miter;stroke-miterlimit:4;stroke-opacity:1;stroke-dasharray:none"
       id="rect3032"
       width="20"
       height="20"
       x="370"
       y="252.36218" />
    <rect
       style="fill:#ffffff;fill-opacity:1;fill-rule:evenodd;stroke:#a18824;stroke-width:0.2;stroke-linecap:butt;stroke-linejoin:miter;stroke-miterlimit:4;stroke-opacity:1;stroke-dasharray:none"
       id="rect3034"
       width="20"
       height="20"
       x="450"
       y="252.36218" />
    <rect
       style="fill:#ffffff;fill-opacity:1;fill-rule:evenodd;stroke:#a18824;stroke-width:0.28284273;stroke-linecap:butt;stroke-linejoin:miter;stroke-miterlimit:4;stroke-opacity:1;stroke-dasharray:none"
       id="rect3036"
       width="20"
       height="40"
       x="350"
       y="192.36218" />
    <rect
       style="fill:#ffffff;fill-opacity:1;fill-rule:evenodd;stroke:#a18824;stroke-width:0.28284273;stroke-linecap:butt;stroke-linejoin:miter;stroke-miterlimit:4;stroke-opacity:1;stroke-dasharray:none"
       id="rect3038"
       width="20"
       height="40"
       x="470"
       y="192.36218" />
    <rect
       style="fill:#ffffff;fill-opacity:1;fill-rule:evenodd;stroke:#a18824;stroke-width:0.2;stroke-linecap:butt;stroke-linejoin:miter;stroke-miterlimit:4;stroke-opacity:1;stroke-dasharray:none"
       id="rect3040"
       width="20"
       height="20"
       x="330"
       y="172.36218" />
    <rect
       style="fill:#ffffff;fill-opacity:1;fill-rule:evenodd;stroke:#a18824;stroke-width:0.2;stroke-linecap:butt;stroke-linejoin:miter;stroke-miterlimit:4;stroke-opacity:1;stroke-dasharray:none"
       id="rect3042"
       width="20"
       height="20"
       x="490"
       y="172.36218" />
    <rect
       style="fill:#ffffff;fill-opacity:1;fill-rule:evenodd;stroke:#a18824;stroke-width:0.2;stroke-linecap:butt;stroke-linejoin:miter;stroke-miterlimit:4;stroke-opacity:1;stroke-dasharray:none"
       id="rect3074"
       width="40"
       height="20"
       x="30"
       y="392.36218" />
    <rect
       style="fill:#ffffff;fill-opacity:1;fill-rule:evenodd;stroke:#a18824;stroke-width:0.2;stroke-linecap:butt;stroke-linejoin:miter;stroke-miterlimit:4;stroke-opacity:1;stroke-dasharray:none"
       id="rect3076"
       width="20"
       height="30"
       x="110"
       y="452.36218" />
    <rect
       style="fill:#ffffff;fill-opacity:1;fill-rule:evenodd;stroke:#a18824;stroke-width:0.2;stroke-linecap:butt;stroke-linejoin:miter;stroke-miterlimit:4;stroke-opacity:1;stroke-dasharray:none"
       id="rect3078"
       width="20"
       height="30"
       x="-30"
       y="452.36218" />
    <rect
       style="fill:#ffffff;fill-opacity:1;fill-rule:evenodd;stroke:#a18824;stroke-width:0.2;stroke-linecap:butt;stroke-linejoin:miter;stroke-miterlimit:4;stroke-opacity:1;stroke-dasharray:none"
       id="rect3080"
       width="20"
       height="20"
       x="90"
       y="352.36218" />
    <rect
       style="fill:#ffffff;fill-opacity:1;fill-rule:evenodd;stroke:#a18824;stroke-width:0.2;stroke-linecap:butt;stroke-linejoin:miter;stroke-miterlimit:4;stroke-opacity:1;stroke-dasharray:none"
       id="rect3082"
       width="20"
       height="20"
       x="-10"
       y="352.36218" />
    <rect
       style="fill:#ffffff;fill-opacity:1;fill-rule:evenodd;stroke:#a18824;stroke-width:0.22563045000000001;stroke-linecap:butt;stroke-linejoin:miter;stroke-miterlimit:4;stroke-opacity:1;stroke-dasharray:none"
       id="rect3084"
       width="140"
       height="20"
       x="630"
       y="382.36218" />
    <rect
       style="fill:#ffffff;fill-opacity:1;fill-rule:evenodd;stroke:#a18824;stroke-width:0.20000000000000001;stroke-linecap:butt;stroke-linejoin:miter;stroke-miterlimit:4;stroke-opacity:1;stroke-dasharray:none"
       id="rect3086"
       width="20"
       height="40"
       x="650"
       y="402.36218" />
    <rect
       style="fill:#ffffff;fill-opacity:1;fill-rule:evenodd;stroke:#a18824;stroke-width:0.20000000000000001;stroke-linecap:butt;stroke-linejoin:miter;stroke-miterlimit:4;stroke-opacity:1;stroke-dasharray:none"
       id="rect3088"
       width="20"
       height="40"
       x="730"
       y="402.36218" />
    <rect
       style="fill:#ffffff;fill-opacity:1;fill-rule:evenodd;stroke:#a18824;stroke-width:0.20000000000000001;stroke-linecap:butt;stroke-linejoin:miter;stroke-miterlimit:4;stroke-opacity:1;stroke-dasharray:none"
       id="rect3092"
       width="20"
       height="20"
       x="680"
       y="422.36218" />
    <rect
       style="fill:#ffffff;fill-opacity:1;fill-rule:evenodd;stroke:#a18824;stroke-width:0.20000000000000001;stroke-linecap:butt;stroke-linejoin:miter;stroke-miterlimit:4;stroke-opacity:1;stroke-dasharray:none"
       id="rect3096"
       width="20"
       height="20"
       x="700"
       y="402.36218" />
    <rect
       style="fill:#ffffff;fill-opacity:1;fill-rule:evenodd;stroke:#a18824;stroke-width:0.21908902999999999;stroke-linecap:butt;stroke-linejoin:miter;stroke-miterlimit:4;stroke-opacity:1;stroke-dasharray:none"
       id="rect3098"
       width="60"
       height="20"
       x="670"
       y="462.36218" />
    <rect
       style="fill:#ffffff;fill-opacity:1;fill-rule:evenodd;stroke:#a18824;stroke-width:0.20000000000000001;stroke-linecap:butt;stroke-linejoin:miter;stroke-miterlimit:4;stroke-opacity:1;stroke-dasharray:none"
       id="rect3100"
       width="20"
       height="60"
       x="750"
       y="442.36218" />
    <rect
       style="fill:#ffffff;fill-opacity:1;fill-rule:evenodd;stroke:#a18824;stroke-width:0.20000000000000001;stroke-linecap:butt;stroke-linejoin:miter;stroke-miterlimit:4;stroke-opacity:1;stroke-dasharray:none"
       id="rect3102"
       width="20.000029"
       height="59.999973"
       x="630"
       y="442.36218"
       ry="0" />
    <rect
       style="fill:#ffffff;fill-opacity:1;fill-rule:evenodd;stroke:#a18824;stroke-width:0.21081850999999999;stroke-linecap:butt;stroke-linejoin:miter;stroke-miterlimit:4;stroke-opacity:1;stroke-dasharray:none"
       id="rect3104"
       width="100"
       height="20"
       x="650"
       y="482.36218" />
    <rect
       style="fill:#ffffff;fill-opacity:1;fill-rule:evenodd;stroke:#a18824;stroke-width:0.20000000000000001;stroke-linecap:butt;stroke-linejoin:miter;stroke-miterlimit:4;stroke-opacity:1;stroke-dasharray:none"
       id="rect3112"
       width="20"
       height="20"
       x="700"
       y="442.36218" />
    <rect
       style="fill:#ffffff;fill-opacity:1;fill-rule:evenodd;stroke:#a18824;stroke-width:0.19466572;stroke-linecap:butt;stroke-linejoin:miter;stroke-miterlimit:4;stroke-opacity:1;stroke-dasharray:none"
       id="rect2996"
       width="180"
       height="20"
       x="330"
       y="52.362183" />
    <rect
       style="fill:#ffffff;fill-opacity:1;fill-rule:evenodd;stroke:#a18824;stroke-width:0.20470653;stroke-linecap:butt;stroke-linejoin:miter;stroke-miterlimit:4;stroke-opacity:1;stroke-dasharray:none"
       id="rect2998"
       width="220"
       height="20"
       x="310"
       y="92.362183" />
    <rect
       style="fill:#ffffff;fill-opacity:1;fill-rule:evenodd;stroke:#a18824;stroke-width:0.2;stroke-linecap:butt;stroke-linejoin:miter;stroke-miterlimit:4;stroke-opacity:1;stroke-dasharray:none"
       id="rect3004"
       width="20"
       height="40"
       x="330"
       y="112.36218" />
    <rect
       style="fill:#ffffff;fill-opacity:1;fill-rule:evenodd;stroke:#a18824;stroke-width:0.2;stroke-linecap:butt;stroke-linejoin:miter;stroke-miterlimit:4;stroke-opacity:1;stroke-dasharray:none"
       id="rect3006"
       width="20"
       height="40"
       x="490"
       y="112.36218" />
    <rect
       style="fill:#ffffff;fill-opacity:1;fill-rule:evenodd;stroke:#a18824;stroke-width:0.19069251;stroke-linecap:butt;stroke-linejoin:miter;stroke-miterlimit:4;stroke-opacity:1;stroke-dasharray:none"
       id="rect3008"
       width="100"
       height="40"
       x="370"
       y="112.36218" />
    <rect
       style="fill:#ffffff;fill-opacity:1;fill-rule:evenodd;stroke:#a18824;stroke-width:0.19321837;stroke-linecap:butt;stroke-linejoin:miter;stroke-miterlimit:4;stroke-opacity:1;stroke-dasharray:none"
       id="rect3010"
       width="140"
       height="20"
       x="350"
       y="152.36218" />
    <rect
       style="fill:#ffffff;fill-opacity:1;fill-rule:evenodd;stroke:#a18824;stroke-width:0.2;stroke-linecap:butt;stroke-linejoin:miter;stroke-miterlimit:4;stroke-opacity:1;stroke-dasharray:none"
       id="rect3012"
       width="40"
       height="20"
       x="370"
       y="172.36218" />
    <rect
       style="fill:#ffffff;fill-opacity:1;fill-rule:evenodd;stroke:#a18824;stroke-width:0.2;stroke-linecap:butt;stroke-linejoin:miter;stroke-miterlimit:4;stroke-opacity:1;stroke-dasharray:none"
       id="rect3014"
       width="40"
       height="20"
       x="430"
       y="172.36218" />
    <rect
       style="fill:#ffffff;fill-opacity:1;fill-rule:evenodd;stroke:#a18824;stroke-width:0.18516402;stroke-linecap:butt;stroke-linejoin:miter;stroke-miterlimit:4;stroke-opacity:1;stroke-dasharray:none"
       id="rect3016"
       width="60"
       height="20"
       x="390"
       y="192.36218" />
    <rect
       style="fill:#ffffff;fill-opacity:1;fill-rule:evenodd;stroke:#a18824;stroke-width:0.19321837;stroke-linecap:butt;stroke-linejoin:miter;stroke-miterlimit:4;stroke-opacity:1;stroke-dasharray:none"
       id="rect3018"
       width="140"
       height="20"
       x="350"
       y="32.362183" />
    <rect
       style="fill:#ffffff;fill-opacity:1;fill-rule:evenodd;stroke:#a18824;stroke-width:0.2;stroke-linecap:butt;stroke-linejoin:miter;stroke-miterlimit:4;stroke-opacity:1;stroke-dasharray:none"
       id="rect3044"
       width="20"
       height="60"
       x="70"
       y="332.36218" />
    <rect
       style="fill:#ffffff;fill-opacity:1;fill-rule:evenodd;stroke:#a18824;stroke-width:0.2;stroke-linecap:butt;stroke-linejoin:miter;stroke-miterlimit:4;stroke-opacity:1;stroke-dasharray:none"
       id="rect3046"
       width="20"
       height="60"
       x="10"
       y="332.36218" />
    <rect
       style="fill:#ffffff;fill-opacity:1;fill-rule:evenodd;stroke:#a18824;stroke-width:0.2;stroke-linecap:butt;stroke-linejoin:miter;stroke-miterlimit:4;stroke-opacity:1;stroke-dasharray:none"
       id="rect3048"
       width="40"
       height="20"
       x="30"
       y="352.36218" />
    <rect
       style="fill:#ffffff;fill-opacity:1;fill-rule:evenodd;stroke:#a18824;stroke-width:0.2;stroke-linecap:butt;stroke-linejoin:miter;stroke-miterlimit:4;stroke-opacity:1;stroke-dasharray:none"
       id="rect3050"
       width="20"
       height="40"
       x="-10"
       y="412.36218" />
    <rect
       style="fill:#ffffff;fill-opacity:1;fill-rule:evenodd;stroke:#a18824;stroke-width:0.2;stroke-linecap:butt;stroke-linejoin:miter;stroke-miterlimit:4;stroke-opacity:1;stroke-dasharray:none"
       id="rect3052"
       width="20"
       height="40"
       x="90"
       y="412.36218" />
    <rect
       style="fill:#ffffff;fill-opacity:1;fill-rule:evenodd;stroke:#a18824;stroke-width:0.2;stroke-linecap:butt;stroke-linejoin:miter;stroke-miterlimit:4;stroke-opacity:1;stroke-dasharray:none"
       id="rect3054"
       width="40"
       height="20"
       x="30"
       y="432.36218" />
    <rect
       style="fill:#ffffff;fill-opacity:1;fill-rule:evenodd;stroke:#a18824;stroke-width:0.2;stroke-linecap:butt;stroke-linejoin:miter;stroke-miterlimit:4;stroke-opacity:1;stroke-dasharray:none"
       id="rect3056"
       width="80"
       height="20"
       x="10"
       y="452.36218" />
    <rect
       style="fill:#ffffff;fill-opacity:1;fill-rule:evenodd;stroke:#a18824;stroke-width:0.2;stroke-linecap:butt;stroke-linejoin:miter;stroke-miterlimit:4;stroke-opacity:1;stroke-dasharray:none"
       id="rect3058"
       width="120"
       height="20"
       x="-10"
       y="482.36218" />
    <rect
       style="fill:#ffffff;fill-opacity:1;fill-rule:evenodd;stroke:#a18824;stroke-width:0.2;stroke-linecap:butt;stroke-linejoin:miter;stroke-miterlimit:4;stroke-opacity:1;stroke-dasharray:none"
       id="rect3062"
       width="40"
       height="20"
       x="90"
       y="372.36218" />
    <rect
       style="fill:#ffffff;fill-opacity:1;fill-rule:evenodd;stroke:#a18824;stroke-width:0.2;stroke-linecap:butt;stroke-linejoin:miter;stroke-miterlimit:4;stroke-opacity:1;stroke-dasharray:none"
       id="rect3064"
       width="40"
       height="20"
       x="-30"
       y="372.36218" />
    <rect
       style="fill:#ffffff;fill-opacity:1;fill-rule:evenodd;stroke:#a18824;stroke-width:0.2;stroke-linecap:butt;stroke-linejoin:miter;stroke-miterlimit:4;stroke-opacity:1;stroke-dasharray:none"
       id="rect3066"
       width="20"
       height="40"
       x="110"
       y="392.36218" />
    <rect
       style="fill:#ffffff;fill-opacity:1;fill-rule:evenodd;stroke:#a18824;stroke-width:0.2;stroke-linecap:butt;stroke-linejoin:miter;stroke-miterlimit:4;stroke-opacity:1;stroke-dasharray:none"
       id="rect3068"
       width="20"
       height="40"
       x="-30"
       y="392.36218" />
    <rect
       style="fill:#ffffff;fill-opacity:1;fill-rule:evenodd;stroke:#a18824;stroke-width:0.2;stroke-linecap:butt;stroke-linejoin:miter;stroke-miterlimit:4;stroke-opacity:1;stroke-dasharray:none"
       id="rect3070"
       width="20"
       height="20"
       x="130"
       y="372.36218" />
    <rect
       style="fill:#ffffff;fill-opacity:1;fill-rule:evenodd;stroke:#a18824;stroke-width:0.2;stroke-linecap:butt;stroke-linejoin:miter;stroke-miterlimit:4;stroke-opacity:1;stroke-dasharray:none"
       id="rect3072"
       width="20"
       height="20"
       x="-50"
       y="372.36218" />
    <rect
       style="fill:#ffffff;fill-opacity:1;fill-rule:evenodd;stroke:#a18824;stroke-width:0.2;stroke-linecap:butt;stroke-linejoin:miter;stroke-miterlimit:4;stroke-opacity:1;stroke-dasharray:none"
       id="rect3106"
       width="60"
       height="20"
       x="350"
       y="72.362183" />
    <rect
       style="fill:#ffffff;fill-opacity:1;fill-rule:evenodd;stroke:#a18824;stroke-width:0.2;stroke-linecap:butt;stroke-linejoin:miter;stroke-miterlimit:4;stroke-opacity:1;stroke-dasharray:none"
       id="rect3108"
       width="60"
       height="20"
       x="430"
       y="72.362183" />
    <rect
       style="fill:#ffffff;fill-opacity:1;fill-rule:evenodd;stroke:#a18824;stroke-width:0.20000000000000001;stroke-linecap:butt;stroke-linejoin:miter;stroke-miterlimit:4;stroke-opacity:1;stroke-dasharray:none"
       id="rect3110"
       width="20"
       height="20"
       x="690"
       y="362.36218" />
    <rect
       style="fill:#ffffff;fill-opacity:1;fill-rule:evenodd;stroke:#a18824;stroke-width:0.20889319;stroke-linecap:butt;stroke-linejoin:miter;stroke-miterlimit:4;stroke-opacity:1;stroke-dasharray:none"
       id="rect3301"
       width="120"
       height="20"
       x="-10"
       y="592.36218" />
    <rect
       style="fill:#ffffff;fill-opacity:1;fill-rule:evenodd;stroke:#a18824;stroke-width:0.23094012;stroke-linecap:butt;stroke-linejoin:miter;stroke-miterlimit:4;stroke-opacity:1;stroke-dasharray:none"
       id="rect3303"
       width="40"
       height="20"
       x="-50"
       y="612.36218" />
    <rect
       style="fill:#ffffff;fill-opacity:1;fill-rule:evenodd;stroke:#a18824;stroke-width:0.2;stroke-linecap:butt;stroke-linejoin:miter;stroke-miterlimit:4;stroke-opacity:1;stroke-dasharray:none"
       id="rect3305"
       width="40"
       height="20"
       x="110"
       y="612.36218" />
    <rect
       style="fill:#ffffff;fill-opacity:1;fill-rule:evenodd;stroke:#a18824;stroke-width:0.2;stroke-linecap:butt;stroke-linejoin:miter;stroke-miterlimit:4;stroke-opacity:1;stroke-dasharray:none"
       id="rect3307"
       width="40"
       height="19.999989"
       x="130"
       y="632.36218" />
    <rect
       style="fill:#ffffff;fill-opacity:1;fill-rule:evenodd;stroke:#a18824;stroke-width:0.2;stroke-linecap:butt;stroke-linejoin:miter;stroke-miterlimit:4;stroke-opacity:1;stroke-dasharray:none"
       id="rect3309"
       width="40"
       height="20"
       x="-70"
       y="632.36218" />
    <rect
       style="fill:#ffffff;fill-opacity:1;fill-rule:evenodd;stroke:#a18824;stroke-width:0.2;stroke-linecap:butt;stroke-linejoin:miter;stroke-miterlimit:4;stroke-opacity:1;stroke-dasharray:none"
       id="rect3311"
       width="40"
       height="20"
       x="-50"
       y="652.36218" />
    <rect
       style="fill:#ffffff;fill-opacity:1;fill-rule:evenodd;stroke:#a18824;stroke-width:0.2;stroke-linecap:butt;stroke-linejoin:miter;stroke-miterlimit:4;stroke-opacity:1;stroke-dasharray:none"
       id="rect3313"
       width="40"
       height="20"
       x="110"
       y="652.36218" />
    <rect
       style="fill:#ffffff;fill-opacity:1;fill-rule:evenodd;stroke:#a18824;stroke-width:0.20655912;stroke-linecap:butt;stroke-linejoin:miter;stroke-miterlimit:4;stroke-opacity:1;stroke-dasharray:none"
       id="rect3315"
       width="160"
       height="20"
       x="-30"
       y="672.36218" />
    <rect
       style="fill:#ffffff;fill-opacity:1;fill-rule:evenodd;stroke:#a18824;stroke-width:0.18353258;stroke-linecap:butt;stroke-linejoin:miter;stroke-miterlimit:4;stroke-opacity:1;stroke-dasharray:none"
       id="rect3317"
       width="160"
       height="20"
       x="-30"
       y="712.36218" />
    <rect
       style="fill:#ffffff;fill-opacity:1;fill-rule:evenodd;stroke:#a18824;stroke-width:0.18152671;stroke-linecap:butt;stroke-linejoin:miter;stroke-miterlimit:4;stroke-opacity:1;stroke-dasharray:none"
       id="rect3319"
       width="200"
       height="20"
       x="-50"
       y="732.36218" />
    <rect
       style="fill:#ffffff;fill-opacity:1;fill-rule:evenodd;stroke:#a18824;stroke-width:0.18856181;stroke-linecap:butt;stroke-linejoin:miter;stroke-miterlimit:4;stroke-opacity:1;stroke-dasharray:none"
       id="rect3321"
       width="20"
       height="80"
       x="-50"
       y="752.36218" />
    <rect
       style="fill:#ffffff;fill-opacity:1;fill-rule:evenodd;stroke:#a18824;stroke-width:0.2;stroke-linecap:butt;stroke-linejoin:miter;stroke-miterlimit:4;stroke-opacity:1;stroke-dasharray:none"
       id="rect3323"
       width="20"
       height="80"
       x="130"
       y="752.36218" />
    <rect
       style="fill:#ffffff;fill-opacity:1;fill-rule:evenodd;stroke:#a18824;stroke-width:0.2;stroke-linecap:butt;stroke-linejoin:miter;stroke-miterlimit:4;stroke-opacity:1;stroke-dasharray:none"
       id="rect3325"
       width="20"
       height="60"
       x="-30"
       y="772.36218" />
    <rect
       style="fill:#ffffff;fill-opacity:1;fill-rule:evenodd;stroke:#a18824;stroke-width:0.2;stroke-linecap:butt;stroke-linejoin:miter;stroke-miterlimit:4;stroke-opacity:1;stroke-dasharray:none"
       id="rect3327"
       width="20"
       height="60"
       x="110"
       y="772.36218" />
    <rect
       style="fill:#ffffff;fill-opacity:1;fill-rule:evenodd;stroke:#a18824;stroke-width:0.2;stroke-linecap:butt;stroke-linejoin:miter;stroke-miterlimit:4;stroke-opacity:1;stroke-dasharray:none"
       id="rect3333"
       width="40"
       height="20"
       x="90"
       y="832.36218" />
    <rect
       style="fill:#ffffff;fill-opacity:1;fill-rule:evenodd;stroke:#a18824;stroke-width:0.2;stroke-linecap:butt;stroke-linejoin:miter;stroke-miterlimit:4;stroke-opacity:1;stroke-dasharray:none"
       id="rect3335"
       width="40"
       height="20"
       x="-30"
       y="832.36218" />
    <rect
       style="fill:#ffffff;fill-opacity:1;fill-rule:evenodd;stroke:#a18824;stroke-width:0.10690451;stroke-linecap:butt;stroke-linejoin:miter;stroke-miterlimit:4;stroke-opacity:1;stroke-dasharray:none;display:inline"
       id="rect3347"
       width="20"
       height="20"
       x="70"
       y="892.36218" />
    <rect
       style="fill:#ffffff;fill-opacity:1;fill-rule:evenodd;stroke:#a18824;stroke-width:0.21908903;stroke-linecap:butt;stroke-linejoin:miter;stroke-miterlimit:4;stroke-opacity:1;stroke-dasharray:none"
       id="rect3350"
       width="20"
       height="60"
       x="10"
       y="772.36218" />
    <rect
       style="fill:#ffffff;fill-opacity:1;fill-rule:evenodd;stroke:#a18824;stroke-width:0.21908903;stroke-linecap:butt;stroke-linejoin:miter;stroke-miterlimit:4;stroke-opacity:1;stroke-dasharray:none"
       id="rect3352"
       width="20"
       height="60"
       x="70"
       y="772.36218" />
    <rect
       style="fill:#ffffff;fill-opacity:1;fill-rule:evenodd;stroke:#a18824;stroke-width:0.23093991;stroke-linecap:butt;stroke-linejoin:miter;stroke-miterlimit:4;stroke-opacity:1;stroke-dasharray:none"
       id="rect3354"
       width="40"
       height="19.999918"
       x="30"
       y="812.36218" />
    <rect
       style="fill:#ffffff;fill-opacity:1;fill-rule:evenodd;stroke:#a18824;stroke-width:0.23094012;stroke-linecap:butt;stroke-linejoin:miter;stroke-miterlimit:4;stroke-opacity:1;stroke-dasharray:none"
       id="rect3356"
       width="40"
       height="20"
       x="30"
       y="772.36218" />
    <rect
       style="fill:#ffffff;fill-opacity:1;fill-rule:evenodd;stroke:#a18824;stroke-width:0.2;stroke-linecap:butt;stroke-linejoin:miter;stroke-miterlimit:4;stroke-opacity:1;stroke-dasharray:none;display:inline"
       id="rect3345"
       width="20"
       height="40"
       x="90"
       y="852.36218" />
    <rect
       style="fill:#ffffff;fill-opacity:1;fill-rule:evenodd;stroke:#a18824;stroke-width:0.2;stroke-linecap:butt;stroke-linejoin:miter;stroke-miterlimit:4;stroke-opacity:1;stroke-dasharray:none;display:inline"
       id="rect3343"
       width="20"
       height="40"
       x="-10"
       y="852.36218" />
    <rect
       style="fill:#ffffff;fill-opacity:1;fill-rule:evenodd;stroke:#a18824;stroke-width:0.2828427;stroke-linecap:butt;stroke-linejoin:miter;stroke-miterlimit:4;stroke-opacity:1;stroke-dasharray:none"
       id="rect3361"
       width="80"
       height="20"
       x="10"
       y="852.36218" />
    <rect
       style="fill:#ffffff;fill-opacity:1;fill-rule:evenodd;stroke:#a18824;stroke-width:0.28284273;stroke-linecap:butt;stroke-linejoin:miter;stroke-miterlimit:4;stroke-opacity:1;stroke-dasharray:none"
       id="rect3363"
       width="40"
       height="20"
       x="30"
       y="872.36218" />
    <rect
       style="fill:#ffffff;fill-opacity:1;fill-rule:evenodd;stroke:#a18824;stroke-width:0.2;stroke-linecap:butt;stroke-linejoin:miter;stroke-miterlimit:4;stroke-opacity:1;stroke-dasharray:none"
       id="rect3365"
       width="80"
       height="20"
       x="10"
       y="912.36218" />
    <rect
       style="fill:#ffffff;fill-opacity:1;fill-rule:evenodd;stroke:#a18824;stroke-width:0.2;stroke-linecap:butt;stroke-linejoin:miter;stroke-miterlimit:4;stroke-opacity:1;stroke-dasharray:none"
       id="rect3392"
       width="20"
       height="20"
       x="10"
       y="892.36218" />
    <path
       style="fill:#ffffff;display:inline"
       d="m 270,592.36218 0,20 120,0 0,-20 -120,0 z m 120,20 0,20 20,0 0,20 -20,0 0,20 -120,0 0,-20 -20,0 0,-20 20,0 0,-20 -40,0 0,20 -20,0 0,20 20,0 0,20 20,0 0,20 160,0 0,-20 20,0 0,-20 20,0 0,-20 -20,0 0,-20 -40,0 z"
       id="path3372"
       inkscape:connector-curvature="0"
       inkscape:export-filename="C:\Users\quanvt\Documents\GitHub\Custom-RPG-Battle\Assets\mon3.png"
       inkscape:export-xdpi="131.31818"
       inkscape:export-ydpi="131.31818" />
    <path
       style="fill:#ffffff;display:inline"
       d="m 250,712.36218 0,20 -20,0 0,100 20,0 0,20 20,0 0,40 20,0 0,-20 20,0 0,20 40,0 0,-20 20,0 0,20 20,0 0,-40 20,0 0,-20 20,0 0,-100 -20,0 0,-20 -160,0 z m 120,180 -20,0 0,20.00002 -40,0 0,-20.00002 -20,0 0,40.00002 80,0 0,-40.00002 z m -120,-140 160,0 0,20 -20,0 0,60 -20,0 0,20 -80,0 0,-20 -20,0 0,-60 -20,0 0,-20 z m 40,80 80,0 0,-60 -80,0 0,60 z m 20,-40 40,0 0,20 -40,0 0,-20 z"
       id="path3394"
       inkscape:connector-curvature="0"
       inkscape:export-filename="C:\Users\quanvt\Documents\GitHub\Custom-RPG-Battle\Assets\mon3.png"
       inkscape:export-xdpi="131.31818"
       inkscape:export-ydpi="131.31818" />
    <path
       style="fill:#ffffff;display:inline;"
       d="m 260,332.36218 0,20 -20,0 0,20 -40,0 0,20 20,0 0,40 20,0 0,20 20,0 0,-40 -20,0 0,-20 40,0 0,-20 40,0 0,20 40,0 0,20 -20,0 0,40 20,0 0,-20 20,0 0,-40 20,0 0,-20 -40,0 0,-20 -20,0 0,-20 -20,0 0,20 -40,0 0,-20 -20,0 z m 100,120 0,30 20,0 0,-30 -20,0 z m 0,30 -120,0 0,20 120,0 0,-20 z m -120,0 0,-30 -20,0 0,30 20,0 z m 100,-30 -20,0 0,-20 -40,0 0,20 -20,0 0,20 80,0 0,-20 z m -20,-60 -40,0 0,20 40,0 0,-20 z"
       id="path3571"
       inkscape:connector-curvature="0"
       inkscape:export-filename="C:\Users\quanvt\Documents\GitHub\Custom-RPG-Battle\Assets\mon2.png"
       inkscape:export-xdpi="131.82353"
       inkscape:export-ydpi="131.82353" />
    <path
       style="fill:#ffffff;display:inline;"
       d="m 600,32.362185 0,20.000001 -20,0 0,20 20,0 0,19.999997 -40,0 0,19.999997 20,0 0,40 20,0 0,-40 20,0 0,40 -20,0 0,20 20,0 0,20 20,0 0,20 60,0 0,-20 20,0 0,-20 20,0 0,-20 -20,0 0,-40 20,0 0,40 20,0 0,-40 20,0 0,-19.999997 -40,0 0,-19.999997 20,0 0,-20 -20,0 0,-20.000001 -140,0 z m 140,139.999995 0,20 -20,0 0,60 20,0 0,-20 20,0 0,-60 -20,0 z m -20,80 -20,0 0,20 20,0 0,-20 z m -100,-60 -20,0 0,-20 -20,0 0,60 20,0 0,20 20,0 0,-60 z m 0,60 0,20 20,0 0,-20 -20,0 z m 40,-179.999994 20,0 0,19.999997 -20,0 0,-19.999997 z m 0,99.999994 20,0 0,20 -20,0 0,-20 z"
       id="path3586"
       inkscape:connector-curvature="0"
       inkscape:export-xdpi="130.875"
       inkscape:export-ydpi="130.875" />
    <g
       id="g4455"
       transform="translate(-5,45)"
       style="fill:#ffffff">
      <rect
         y="2.3621852"
         x="940"
         height="20"
         width="20"
         id="rect2989-1"
         style="fill:#ffffff;fill-opacity:1;fill-rule:evenodd;stroke:#000000;stroke-width:2;stroke-linecap:butt;stroke-linejoin:miter;stroke-miterlimit:4;stroke-opacity:1;stroke-dasharray:none" />
      <rect
         y="2.3621852"
         x="1000"
         height="20"
         width="20"
         id="rect3759"
         style="fill:#ffffff;fill-opacity:1;fill-rule:evenodd;stroke:#000000;stroke-width:2;stroke-linecap:butt;stroke-linejoin:miter;stroke-miterlimit:4;stroke-opacity:1;stroke-dasharray:none" />
      <rect
         y="22.362185"
         x="900"
         height="20"
         width="160"
         id="rect3761"
         style="fill:#ffffff;fill-opacity:1;fill-rule:evenodd;stroke:#000000;stroke-width:2;stroke-linecap:butt;stroke-linejoin:miter;stroke-miterlimit:4;stroke-opacity:1;stroke-dasharray:none" />
      <rect
         y="42.362186"
         x="860"
         height="20"
         width="100"
         id="rect3763"
         style="fill:#ffffff;fill-opacity:1;fill-rule:evenodd;stroke:#000000;stroke-width:2;stroke-linecap:butt;stroke-linejoin:miter;stroke-miterlimit:4;stroke-opacity:1;stroke-dasharray:none" />
      <rect
         y="42.362186"
         x="1000"
         height="20"
         width="100"
         id="rect3765"
         style="fill:#ffffff;fill-opacity:1;fill-rule:evenodd;stroke:#000000;stroke-width:2;stroke-linecap:butt;stroke-linejoin:miter;stroke-miterlimit:4;stroke-opacity:1;stroke-dasharray:none" />
      <rect
         y="62.362186"
         x="1100"
         height="80"
         width="20"
         id="rect3767"
         style="fill:#ffffff;fill-opacity:1;fill-rule:evenodd;stroke:#000000;stroke-width:2;stroke-linecap:butt;stroke-linejoin:miter;stroke-miterlimit:4;stroke-opacity:1;stroke-dasharray:none" />
      <rect
         y="62.362186"
         x="840"
         height="80"
         width="20"
         id="rect3769"
         style="fill:#ffffff;fill-opacity:1;fill-rule:evenodd;stroke:#000000;stroke-width:2;stroke-linecap:butt;stroke-linejoin:miter;stroke-miterlimit:4;stroke-opacity:1;stroke-dasharray:none" />
      <rect
         y="62.362186"
         x="860"
         height="40"
         width="20"
         id="rect3771"
         style="fill:#ffffff;fill-opacity:1;fill-rule:evenodd;stroke:#000000;stroke-width:2;stroke-linecap:butt;stroke-linejoin:miter;stroke-miterlimit:4;stroke-opacity:1;stroke-dasharray:none" />
      <rect
         y="62.362186"
         x="1080"
         height="40"
         width="20"
         id="rect3773"
         style="fill:#ffffff;fill-opacity:1;fill-rule:evenodd;stroke:#000000;stroke-width:2;stroke-linecap:butt;stroke-linejoin:miter;stroke-miterlimit:4;stroke-opacity:1;stroke-dasharray:none" />
      <rect
         y="62.362186"
         x="940"
         height="20"
         width="80"
         id="rect3789"
         style="fill:#ffffff;fill-opacity:1;fill-rule:evenodd;stroke:#000000;stroke-width:2;stroke-linecap:butt;stroke-linejoin:miter;stroke-miterlimit:4;stroke-opacity:1;stroke-dasharray:none" />
      <rect
         y="62.362186"
         x="900"
         height="40"
         width="20"
         id="rect3791"
         style="fill:#ffffff;fill-opacity:1;fill-rule:evenodd;stroke:#000000;stroke-width:2;stroke-linecap:butt;stroke-linejoin:miter;stroke-miterlimit:4;stroke-opacity:1;stroke-dasharray:none" />
      <rect
         y="62.362186"
         x="880"
         height="20"
         width="20"
         id="rect3793"
         style="fill:#ffffff;fill-opacity:1;fill-rule:evenodd;stroke:#000000;stroke-width:2;stroke-linecap:butt;stroke-linejoin:miter;stroke-miterlimit:4;stroke-opacity:1;stroke-dasharray:none" />
      <rect
         y="62.362186"
         x="1040"
         height="40"
         width="20"
         id="rect3795"
         style="fill:#ffffff;fill-opacity:1;fill-rule:evenodd;stroke:#000000;stroke-width:2;stroke-linecap:butt;stroke-linejoin:miter;stroke-miterlimit:4;stroke-opacity:1;stroke-dasharray:none" />
      <rect
         y="62.362186"
         x="1060"
         height="20"
         width="20"
         id="rect3797"
         style="fill:#ffffff;fill-opacity:1;fill-rule:evenodd;stroke:#000000;stroke-width:2;stroke-linecap:butt;stroke-linejoin:miter;stroke-miterlimit:4;stroke-opacity:1;stroke-dasharray:none" />
      <rect
         y="82.362183"
         x="920"
         height="40"
         width="20"
         id="rect3799"
         style="fill:#ffffff;fill-opacity:1;fill-rule:evenodd;stroke:#000000;stroke-width:2;stroke-linecap:butt;stroke-linejoin:miter;stroke-miterlimit:4;stroke-opacity:1;stroke-dasharray:none" />
      <rect
         y="82.362183"
         x="1020"
         height="40"
         width="20"
         id="rect3801"
         style="fill:#ffffff;fill-opacity:1;fill-rule:evenodd;stroke:#000000;stroke-width:2;stroke-linecap:butt;stroke-linejoin:miter;stroke-miterlimit:4;stroke-opacity:1;stroke-dasharray:none" />
      <rect
         y="102.36218"
         x="940"
         height="60"
         width="20"
         id="rect3803"
         style="fill:#ffffff;fill-opacity:1;fill-rule:evenodd;stroke:#000000;stroke-width:2;stroke-linecap:butt;stroke-linejoin:miter;stroke-miterlimit:4;stroke-opacity:1;stroke-dasharray:none" />
      <rect
         y="102.36218"
         x="1000"
         height="60"
         width="20"
         id="rect3805"
         style="fill:#ffffff;fill-opacity:1;fill-rule:evenodd;stroke:#000000;stroke-width:2;stroke-linecap:butt;stroke-linejoin:miter;stroke-miterlimit:4;stroke-opacity:1;stroke-dasharray:none" />
      <rect
         y="82.362183"
         x="960"
         height="100"
         width="40"
         id="rect3807"
         style="fill:#ffffff;fill-opacity:1;fill-rule:evenodd;stroke:#000000;stroke-width:2;stroke-linecap:butt;stroke-linejoin:miter;stroke-miterlimit:4;stroke-opacity:1;stroke-dasharray:none" />
    </g>
    <path
       style="fill:#ffffff;stroke:none"
       d="m 1235,47.362186 0,20 -40,0 0,20 -40,0 0,20.000004 -20,0 0,79.99999 20,0 0,-40 20,0 0,-20 20,0 0,20 20,0 0,20 20,0 0,40 20,0 0,20 40,0 0,-20 20,0 0,-40 20,0 0,-20 20,0 0,-20 20,0 0,20 20,0 0,40 20,0 0,-79.99999 -20,0 0,-20.000004 -40,0 0,-20 -40,0 0,-20 -20,0 0,20 -40,0 0,-20 -20,0 z m 20,40 40,0 0,20.000004 -40,0 0,-20.000004 z m -40,20.000004 20,0 0,19.99999 20,0 0,20 -20,0 0,-20 -20,0 0,-19.99999 z m 100,0 20,0 0,19.99999 -20,0 0,20 -20,0 0,-20 20,0 0,-19.99999 z"
       id="path4476"
       inkscape:connector-curvature="0"
       inkscape:export-filename="C:\Users\quanvt\Documents\GitHub\Custom-RPG-Battle\Assets\mon4.png"
       inkscape:export-xdpi="131.31818"
       inkscape:export-ydpi="131.31818" />
    <g
       transform="matrix(4.0000001,0,0,4.0000001,349.99998,-1377.0866)"
       id="g3908"
       inkscape:export-filename="C:\Users\quanvt\Documents\GitHub\ProbSimulator-W8\Asset\Axalf.png"
       inkscape:export-xdpi="449.06445"
       inkscape:export-ydpi="449.06445"
       style="fill:#ffffff;stroke:#000000;stroke-width:1;stroke-miterlimit:4;stroke-dasharray:none">
      <rect
         y="417.36218"
         x="160"
         height="5"
         width="20"
         id="rect3866"
         style="fill:#ffffff;fill-opacity:1;fill-rule:evenodd;stroke:#000000;stroke-width:1;stroke-linecap:butt;stroke-linejoin:miter;stroke-miterlimit:4;stroke-opacity:1;stroke-dasharray:none" />
      <rect
         y="422.36218"
         x="155"
         height="5"
         width="30"
         id="rect3868"
         style="fill:#ffffff;fill-opacity:1;fill-rule:evenodd;stroke:#000000;stroke-width:1;stroke-linecap:butt;stroke-linejoin:miter;stroke-miterlimit:4;stroke-opacity:1;stroke-dasharray:none" />
      <rect
         y="427.36218"
         x="150"
         height="5"
         width="40"
         id="rect3870"
         style="fill:#ffffff;fill-opacity:1;fill-rule:evenodd;stroke:#000000;stroke-width:1;stroke-linecap:butt;stroke-linejoin:miter;stroke-miterlimit:4;stroke-opacity:1;stroke-dasharray:none" />
      <rect
         y="432.36218"
         x="150"
         height="5"
         width="5"
         id="rect3872"
         style="fill:#ffffff;fill-opacity:1;fill-rule:evenodd;stroke:#000000;stroke-width:1;stroke-linecap:butt;stroke-linejoin:miter;stroke-miterlimit:4;stroke-opacity:1;stroke-dasharray:none" />
      <rect
         y="432.36218"
         x="185"
         height="5"
         width="5"
         id="rect3874"
         style="fill:#ffffff;fill-opacity:1;fill-rule:evenodd;stroke:#000000;stroke-width:1;stroke-linecap:butt;stroke-linejoin:miter;stroke-miterlimit:4;stroke-opacity:1;stroke-dasharray:none" />
      <rect
         y="432.36218"
         x="165"
         height="5"
         width="10"
         id="rect3876"
         style="fill:#ffffff;fill-opacity:1;fill-rule:evenodd;stroke:#000000;stroke-width:1;stroke-linecap:butt;stroke-linejoin:miter;stroke-miterlimit:4;stroke-opacity:1;stroke-dasharray:none" />
      <rect
         y="437.36218"
         x="155"
         height="5"
         width="30"
         id="rect3878"
         style="fill:#ffffff;fill-opacity:1;fill-rule:evenodd;stroke:#000000;stroke-width:1;stroke-linecap:butt;stroke-linejoin:miter;stroke-miterlimit:4;stroke-opacity:1;stroke-dasharray:none" />
      <rect
         y="442.36218"
         x="145"
         height="5"
         width="50"
         id="rect3880"
         style="fill:#ffffff;fill-opacity:1;fill-rule:evenodd;stroke:#000000;stroke-width:1;stroke-linecap:butt;stroke-linejoin:miter;stroke-miterlimit:4;stroke-opacity:1;stroke-dasharray:none" />
      <rect
         y="437.36218"
         x="195"
         height="10"
         width="5"
         id="rect3882"
         style="fill:#ffffff;fill-opacity:1;fill-rule:evenodd;stroke:#000000;stroke-width:1;stroke-linecap:butt;stroke-linejoin:miter;stroke-miterlimit:4;stroke-opacity:1;stroke-dasharray:none" />
      <rect
         y="437.36218"
         x="140"
         height="10"
         width="5"
         id="rect3884"
         style="fill:#ffffff;fill-opacity:1;fill-rule:evenodd;stroke:#000000;stroke-width:1;stroke-linecap:butt;stroke-linejoin:miter;stroke-miterlimit:4;stroke-opacity:1;stroke-dasharray:none" />
      <rect
         y="447.36218"
         x="145"
         height="5"
         width="20"
         id="rect3888"
         style="fill:#ffffff;fill-opacity:1;fill-rule:evenodd;stroke:#000000;stroke-width:1;stroke-linecap:butt;stroke-linejoin:miter;stroke-miterlimit:4;stroke-opacity:1;stroke-dasharray:none" />
      <rect
         y="447.36218"
         x="175"
         height="5"
         width="20"
         id="rect3890"
         style="fill:#ffffff;fill-opacity:1;fill-rule:evenodd;stroke:#000000;stroke-width:1;stroke-linecap:butt;stroke-linejoin:miter;stroke-miterlimit:4;stroke-opacity:1;stroke-dasharray:none" />
      <rect
         y="452.36218"
         x="160"
         height="5"
         width="20"
         id="rect3894"
         style="fill:#ffffff;fill-opacity:1;fill-rule:evenodd;stroke:#000000;stroke-width:1;stroke-linecap:butt;stroke-linejoin:miter;stroke-miterlimit:4;stroke-opacity:1;stroke-dasharray:none" />
      <rect
         y="457.36218"
         x="165"
         height="5"
         width="10"
         id="rect3896"
         style="fill:#ffffff;fill-opacity:1;fill-rule:evenodd;stroke:#000000;stroke-width:1;stroke-linecap:butt;stroke-linejoin:miter;stroke-miterlimit:4;stroke-opacity:1;stroke-dasharray:none" />
    </g>
    <path
       style="fill:#ffffff;stroke:none"
       d="m 1250,292.36218 0,20 -20,0 0,20 -20,0 0,40 20,0 0,-20 40,0 0,20 -40,0 0,20 -40,0 0,-20 -20,0 0,40 20,0 0,20 60,0 0,20 20,0 0,20 40,0 0,-20 20,0 0,-20 60,0 0,-20 20,0 0,-40 -20,0 0,20 -40,0 0,-20 -40,0 0,-20 40,0 0,20 20,0 0,-40 -20,0 0,-20 -20,0 0,-20 -80,0 z m 20,120 40,0 0,20 -40,0 0,-20 z"
       id="path4522"
       inkscape:connector-curvature="0"
       inkscape:export-filename="C:\Users\quanvt\Documents\GitHub\Custom-RPG-Battle\Assets\mon5.png"
       inkscape:export-xdpi="131.31818"
       inkscape:export-ydpi="131.31818" />
  </g>
</svg>
